<?xml version="1.0" encoding="utf-8"?>
<!-- Generator: Adobe Illustrator 17.1.0, SVG Export Plug-In . SVG Version: 6.00 Build 0)  -->
<!DOCTYPE svg PUBLIC "-//W3C//DTD SVG 1.1//EN" "http://www.w3.org/Graphics/SVG/1.1/DTD/svg11.dtd">
<svg version="1.1" id="Layer_1" xmlns="http://www.w3.org/2000/svg" xmlns:xlink="http://www.w3.org/1999/xlink" x="0px" y="0px"
	 viewBox="0 351.8 612 88.9" enable-background="new 0 351.8 612 88.9" xml:space="preserve">
<g id="Hiphop">
	<path fill="#FFFFFF" d="M0,440v-88.2h35.8v29.8H45v-29.8h35.8v88H45v-38.1h-9.2V440H0z"/>
	<path fill="#FFFFFF" d="M89.1,440v-88.2H125v88H89.1V440z"/>
	<path fill="#FFFFFF" d="M133.4,440v-88.2h58.7c8.1,0,14,1.4,17.4,4.4c3.5,3,5.2,7.8,5.2,14.4V395c0,7.9-1.6,13.3-4.9,16.5
		c-3.3,3.2-9.2,4.8-17.8,4.8h-22.8v23.5h-35.8L133.4,440L133.4,440z M174.1,371.8h-4.9v24.7h4.8c1.7,0,3-0.5,3.8-1.4
		s1.1-2.5,1.1-4.9v-12.1c0-2.2-0.3-4-1.1-4.9C177,372.3,175.7,371.8,174.1,371.8z"/>
	<path fill="#FFFFFF" d="M220.3,440v-88.2h35.8v29.8h9.2v-29.8h35.8v88h-35.8v-38.1h-9.2V440H220.3z"/>
	<path fill="#FFFFFF" d="M328.4,440.6c-8.1,0-13.6-1.6-17-4.8c-3.3-3.2-4.9-8.6-4.9-16.3V370c0-6.5,1.7-11.3,5.2-14.3
		s9-4.4,16.7-4.4h37.4c8.1,0,14,1.4,17.4,4.4c3.5,2.9,5.2,7.8,5.2,14.4v49.3c0,7.8-1.6,13.3-4.9,16.5s-9.2,4.8-17.8,4.8h-37.4
		L328.4,440.6L328.4,440.6z M343,377.5v36.6c0,2.2,0.3,3.8,1.1,4.8c0.8,1,1.9,1.4,3.5,1.4s2.9-0.5,3.5-1.4c0.8-1,1.1-2.5,1.1-4.8
		v-36.6c0-2.2-0.3-3.8-1.1-4.8c-0.8-1-1.9-1.6-3.5-1.6s-2.7,0.5-3.5,1.6C343.3,373.7,343,375.3,343,377.5z"/>
	<path fill="#FFFFFF" d="M394.1,440v-88.2h58.7c8.1,0,14,1.4,17.4,4.4c3.5,3,5.2,7.8,5.2,14.4V395c0,7.9-1.6,13.3-4.9,16.5
		s-9.2,4.8-17.8,4.8h-22.8v23.5h-35.8L394.1,440L394.1,440z M434.9,371.8H430v24.7h4.8c1.7,0,3-0.5,3.8-1.4s1.1-2.5,1.1-4.9v-12.1
		c0-2.2-0.3-4-1.1-4.9C437.9,372.3,436.6,371.8,434.9,371.8z"/>
</g>
<path id="Bubble" fill="#DC3D31" d="M602.2,353.4H494.6c-5.4,0-9.8,4.4-9.8,9.8v46.6c0,0.8,0.2,1.6,0.3,2.4l0,0l-28.2,26.2
	l44.9-18.7h100.4c5.4,0,9.8-4.4,9.8-9.8v-46.6C612,357.9,607.6,353.4,602.2,353.4z"/>
<g id="DX">
	<path fill="#FFFFFF" d="M495.4,366.9h26.8c4.3,0,7.8,0.2,10.3,0.6s5.2,1.3,7.9,2.7s4.8,3.3,6.3,6c1.6,2.7,2.4,5.7,2.4,9.2
		c0,7.5-2.1,12.2-6.3,14.6c-4.3,2.2-7.8,3.6-10.5,4.1s-6,0.8-10.1,0.8h-27v-5.1h4.3c1.4,0,2.4-0.2,2.9-0.5c0.3-0.3,0.5-1.1,0.5-2.2
		v-1.3v-21.4V373c0-0.3-0.2-0.5-0.6-0.8c-0.3-0.2-1.1-0.3-2.4-0.3h-4.6L495.4,366.9L495.4,366.9L495.4,366.9z M516.2,399.9h5.9
		c4.8,0,8.1-1.3,10.1-3.8s3-6,3-10.3c0-4.1-0.6-7.1-1.9-9.2s-2.7-3.3-4-3.8c-1.4-0.5-3.6-0.8-7-0.8h-6L516.2,399.9z"/>
	<path fill="#FFFFFF" d="M548.2,399.9h3h1.6c0.2,0,0.5-0.2,1-0.3c0.5-0.2,0.8-0.5,1-0.6l1.9-1.7l11.3-10.8l-11.1-11.9l-1.4-1.3
		c-0.5-0.5-1-0.8-1.4-1c-0.6-0.2-1.1-0.3-1.7-0.3H549v-5.1h26.5v5.1h-1.9c-1.3,0-1.9,0.3-1.9,0.8s0.3,1,1,1.7l4.1,5.6l5.4-5.6l1-1
		l0.6-1c0-0.5-0.6-0.6-1.7-0.6h-2.2v-5.1h19.7v5.1h-2.9h-0.8c-1,0.2-1.9,0.5-2.5,1l-1.6,1.6l-9.5,9.2l12.8,13.5c1,1,1.7,1.7,2.5,2.2
		c0.6,0.3,1.4,0.5,2.5,0.5h1.9v5.1h-26.6v-5.1h3h1.4l0.8-0.3c0.2-0.2,0.2-0.3,0.3-0.6c0-0.3-0.3-0.8-1-1.6l-6.3-7.1l-7.3,7.1l-0.8,1
		l-0.3,0.6c0,0.6,0.6,1,2.1,1h3v5.1h-22L548.2,399.9L548.2,399.9z"/>
</g>
</svg>
